<svg width="13" height="13" viewBox="0 0 13 13" fill="none" xmlns="http://www.w3.org/2000/svg">
<path d="M6.49998 0.0714111C2.94872 0.0714111 0.0714111 2.94872 0.0714111 6.49998C0.0714111 10.0512 2.94872 12.9286 6.49998 12.9286C10.0512 12.9286 12.9286 10.0512 12.9286 6.49998C12.9286 2.94872 10.0512 0.0714111 6.49998 0.0714111ZM6.49998 11.6843C3.63564 11.6843 1.31565 9.36433 1.31565 6.49998C1.31565 3.63564 3.63564 1.31565 6.49998 1.31565C9.36433 1.31565 11.6843 3.63564 11.6843 6.49998C11.6843 9.36433 9.36433 11.6843 6.49998 11.6843ZM8.10194 8.97809L5.90119 7.37873C5.82083 7.31911 5.77418 7.22579 5.77418 7.12729V2.87095C5.77418 2.69987 5.91415 2.55989 6.08524 2.55989H6.91473C7.08581 2.55989 7.22579 2.69987 7.22579 2.87095V6.54405L8.95736 7.80384C9.09733 7.90494 9.12585 8.09935 9.02475 8.23933L8.53743 8.9107C8.43633 9.04808 8.24192 9.07919 8.10194 8.97809Z" fill="#008F62"/>
</svg>
