<svg width="15" height="11" viewBox="0 0 15 11" fill="none" xmlns="http://www.w3.org/2000/svg">
<path d="M4.46967 4.8939V6.10602H10.5303V4.8939C10.5303 3.76662 11.306 2.82723 12.3485 2.5545V1.86359C12.3485 0.863592 11.5303 0.0454102 10.5303 0.0454102H4.46967C3.46967 0.0454102 2.65149 0.863592 2.65149 1.86359V2.5545C3.69391 2.82723 4.46967 3.76662 4.46967 4.8939Z" fill="#7238FF"/>
<path d="M12.9545 3.68176C12.2879 3.68176 11.7424 4.22722 11.7424 4.89388V7.31813H3.25756V4.89388C3.25756 4.22722 2.7121 3.68176 2.04543 3.68176C1.37877 3.68176 0.833313 4.22722 0.833313 4.89388V7.92419C0.833313 8.92419 1.65149 9.74237 2.65149 9.74237V10.3484C2.65149 10.6818 2.92422 10.9545 3.25756 10.9545C3.59089 10.9545 3.86362 10.6818 3.86362 10.3484V9.74237H11.1363V10.3484C11.1363 10.6818 11.4091 10.9545 11.7424 10.9545C12.0757 10.9545 12.3485 10.6818 12.3485 10.3484V9.74237C13.3485 9.74237 14.1666 8.92419 14.1666 7.92419V4.89388C14.1666 4.22722 13.6212 3.68176 12.9545 3.68176Z" fill="#7238FF"/>
</svg>
