<svg width="11" height="12" viewBox="0 0 11 12" fill="none" xmlns="http://www.w3.org/2000/svg">
<path d="M10.5 11.4772V11.9166H0.916687V11.4772C0.916687 11.3316 1.03162 11.2135 1.17338 11.2135H1.60121V3.30334C1.60121 3.0121 1.83106 2.776 2.1146 2.776H3.99704V1.19397C3.99704 0.902722 4.22689 0.666626 4.51044 0.666626H6.90627C7.18981 0.666626 7.41966 0.902722 7.41966 1.19397V2.776H9.3021C9.58565 2.776 9.8155 3.0121 9.8155 3.30334V11.2135H10.2433C10.3851 11.2135 10.5 11.3316 10.5 11.4772ZM7.50523 4.88538H6.64957C6.50781 4.88538 6.39288 5.00344 6.39288 5.14905V6.02795C6.39288 6.17357 6.50781 6.29163 6.64957 6.29163H7.50523C7.64699 6.29163 7.76192 6.17357 7.76192 6.02795V5.14905C7.76192 5.00344 7.64699 4.88538 7.50523 4.88538ZM3.91148 6.29163H4.76713C4.90889 6.29163 5.02383 6.17357 5.02383 6.02795V5.14905C5.02383 5.00344 4.90889 4.88538 4.76713 4.88538H3.91148C3.76972 4.88538 3.65478 5.00344 3.65478 5.14905V6.02795C3.65478 6.17357 3.76972 6.29163 3.91148 6.29163ZM6.13618 9.10413H5.28053C5.13877 9.10413 5.02383 9.22219 5.02383 9.3678V11.2135H6.39288V9.3678C6.39288 9.22219 6.27794 9.10413 6.13618 9.10413ZM7.50523 6.99475H6.64957C6.50781 6.99475 6.39288 7.11281 6.39288 7.25842V8.13733C6.39288 8.28294 6.50781 8.401 6.64957 8.401H7.50523C7.64699 8.401 7.76192 8.28294 7.76192 8.13733V7.25842C7.76192 7.11281 7.64699 6.99475 7.50523 6.99475ZM5.02383 7.25842C5.02383 7.11281 4.90889 6.99475 4.76713 6.99475H3.91148C3.76972 6.99475 3.65478 7.11281 3.65478 7.25842V8.13733C3.65478 8.28294 3.76972 8.401 3.91148 8.401H4.76713C4.90889 8.401 5.02383 8.28294 5.02383 8.13733V7.25842ZM4.80992 2.776H5.36609V3.34729C5.36609 3.38226 5.37961 3.41579 5.40368 3.44051C5.42775 3.46524 5.4604 3.47913 5.49444 3.47913H5.92227C5.95631 3.47913 5.98895 3.46524 6.01302 3.44051C6.03709 3.41579 6.05062 3.38226 6.05062 3.34729V2.776H6.60679C6.64083 2.776 6.67348 2.76211 6.69755 2.73739C6.72162 2.71266 6.73514 2.67913 6.73514 2.64417V2.20471C6.73514 2.16975 6.72162 2.13621 6.69755 2.11149C6.67348 2.08677 6.64083 2.07288 6.60679 2.07288H6.05062V1.50159C6.05062 1.46662 6.03709 1.43309 6.01302 1.40836C5.98895 1.38364 5.95631 1.36975 5.92227 1.36975H5.49444C5.4604 1.36975 5.42775 1.38364 5.40368 1.40836C5.37961 1.43309 5.36609 1.46662 5.36609 1.50159V2.07288H4.80992C4.77588 2.07288 4.74323 2.08677 4.71916 2.11149C4.69509 2.13621 4.68157 2.16975 4.68157 2.20471V2.64417C4.68157 2.67913 4.69509 2.71266 4.71916 2.73739C4.74323 2.76211 4.77588 2.776 4.80992 2.776Z" fill="#7238FF"/>
</svg>
