<svg width="9" height="11" viewBox="0 0 9 11" fill="none" xmlns="http://www.w3.org/2000/svg">
<path d="M1.45065 9.12871L4.4999 7.81754L7.54914 9.12871V1.23117H1.45065V9.12871ZM1.08474 10.6228C0.881462 10.7042 0.688343 10.6863 0.505389 10.5692C0.322434 10.4525 0.230957 10.2823 0.230957 10.0587V1.23117C0.230957 0.895755 0.350487 0.608516 0.589548 0.369456C0.828202 0.130802 1.11524 0.0114746 1.45065 0.0114746H7.54914C7.88456 0.0114746 8.17179 0.130802 8.41086 0.369456C8.64951 0.608516 8.76884 0.895755 8.76884 1.23117V10.0587C8.76884 10.2823 8.67736 10.4525 8.4944 10.5692C8.31145 10.6863 8.11833 10.7042 7.91505 10.6228L4.4999 9.1592L1.08474 10.6228Z" fill="#261726"/>
</svg>
