<svg width="15" height="8" viewBox="0 0 15 8" fill="none" xmlns="http://www.w3.org/2000/svg">
<path d="M7.5 4.50452C8.51875 4.50452 9.41875 4.74827 10.15 5.06702C10.825 5.36702 11.25 6.04202 11.25 6.77327V7.78577H3.75V6.77952C3.75 6.04202 4.175 5.36702 4.85 5.07327C5.58125 4.74827 6.48125 4.50452 7.5 4.50452ZM2.5 4.66077C3.1875 4.66077 3.75 4.09827 3.75 3.41077C3.75 2.72327 3.1875 2.16077 2.5 2.16077C1.8125 2.16077 1.25 2.72327 1.25 3.41077C1.25 4.09827 1.8125 4.66077 2.5 4.66077ZM3.20625 5.34827C2.975 5.31077 2.74375 5.28577 2.5 5.28577C1.88125 5.28577 1.29375 5.41702 0.7625 5.64827C0.3 5.84827 0 6.29827 0 6.80452V7.78577H2.8125V6.77952C2.8125 6.26077 2.95625 5.77327 3.20625 5.34827ZM12.5 4.66077C13.1875 4.66077 13.75 4.09827 13.75 3.41077C13.75 2.72327 13.1875 2.16077 12.5 2.16077C11.8125 2.16077 11.25 2.72327 11.25 3.41077C11.25 4.09827 11.8125 4.66077 12.5 4.66077ZM15 6.80452C15 6.29827 14.7 5.84827 14.2375 5.64827C13.7063 5.41702 13.1187 5.28577 12.5 5.28577C12.2563 5.28577 12.025 5.31077 11.7938 5.34827C12.0438 5.77327 12.1875 6.26077 12.1875 6.77952V7.78577H15V6.80452ZM7.5 0.285767C8.5375 0.285767 9.375 1.12327 9.375 2.16077C9.375 3.19827 8.5375 4.03577 7.5 4.03577C6.4625 4.03577 5.625 3.19827 5.625 2.16077C5.625 1.12327 6.4625 0.285767 7.5 0.285767Z" fill="#7238FF"/>
</svg>
